# xmcd CD database file
#
# Track frame offsets:
#	150
#	23014
#	49221
#	64185
#	86447
#	119349
#	153461
#	199114
#
# Disc length: 2956 seconds
#
# Revision: 0
# Processed by: cddbd v1.5.2PL0 Copyright (c) Steve Scherf et al.
# Submitted via: CDex 1.51
#
DISCID=640b8a08
DTITLE=Samuel Blais David Liebmain - Cycling
DYEAR=2014
DGENRE=Jazz
TTITLE0=chli-bli
TTITLE1=Sidonie
TTITLE2=Interludio Obscurio
TTITLE3=Et Voit Le Jour
TTITLE4=Cycling
TTITLE5=Return To Napanoch
TTITLE6=Taste of Honey
TTITLE7=The Crusher
EXTD=YEAR: 2014
EXTT0=
EXTT1=
EXTT2=
EXTT3=
EXTT4=
EXTT5=
EXTT6=
EXTT7=
PLAYORDER=
